{"title":"Shadow 2009 DVDRip Xvid BigPerm LKRG","uid":6635469,"size":773164158,"categoryP":"video","categoryS":"movies","magnet":"?xt=urn:btih:5a2f42131fc77478722efa707e387f51be81babc&amp;dn=Shadow+2009+DVDRip+Xvid+BigPerm+LKRG&amp;tr=udp%3A%2F%2Ftracker.openbittorrent.com%3A80&amp;tr=udp%3A%2F%2Fopen.demonii.com%3A1337&amp;tr=udp%3A%2F%2Ftracker.coppersurfer.tk%3A6969&amp;tr=udp%3A%2F%2Fexodus.desync.com%3A6969","seeders":1,"leechers":0,"uploader":".BONE.","files":2,"time":1314541475,"description":"PLOT\n\nWhen a young soldier leaves for a mountain biking excursion he meets the girl of his dreams\nas well a group of violent locals who want to see them dead at any cost.\n &lt;a href=&quot;\nhttp://www.imdb.com/title/tt1425253/&quot; rel=&quot;nofollow&quot; target=&quot;_NEW&quot;&gt;\nhttp://www.imdb.com/title/tt1425253/&lt;/a&gt;\n\nEncoded By .......: BigPerm1828\nRuntime ..........: 1h 17mn\nFile Size ........: 737 MiB\nResolution .......: 704 x 396\nIMDb URL .........: http://www.imdb.com/title/tt1425253/\nGenre ............: Horror\nLanguage .........: English\nSubtitles ........: None\nVideo\nID : 0\nFormat : MPEG-4 Visual\nFormat profile : Advanced Simple@L5\nFormat settings, BVOP : Yes\nFormat settings, QPel : No\nFormat settings, GMC : No warppoints\nFormat settings, Matrix : Default (H.263)\nCodec ID : XVID\nCodec ID/Hint : XviD\nDuration : 1h 17mn\nBit rate : 870 Kbps\nWidth : 704 pixels\nHeight : 396 pixels\nDisplay aspect ratio : 16:9\nFrame rate : 29.970 fps\nColor space : YUV\nChroma subsampling : 4:2:0\nBit depth : 8 bits\nScan type : Progressive\nCompression mode : Lossy\nBits/(Pixel*Frame) : 0.104\nStream size : 484 MiB (66%)\nWriting library : XviD 1.2.1 (UTC 2008-12-04)\n\nAudio\nID : 1\nFormat : AC-3\nFormat/Info : Audio Coding 3\nMode extension : CM (complete main)\nCodec ID : 2000\nDuration : 1h 17mn\nBit rate mode : Constant\nBit rate : 448 Kbps\nChannel(s) : 6 channels\nChannel positions : Front: L C R, Side: L R, LFE\nSampling rate : 48.0 KHz\nBit depth : 16 bits\nCompression mode : Lossy\nVideo delay : 33ms\nStream size : 249 MiB (34%)\nAlignment : Split accross interleaves\nInterleave, duration : 500 ms (14.98 video frames)\nInterleave, preload duration : 500 ms\n\n\n\n\n\n","torrent":{"xt":"urn:btih:5a2f42131fc77478722efa707e387f51be81babc","amp;dn":"Shadow+2009+DVDRip+Xvid+BigPerm+LKRG","amp;tr":["udp%3A%2F%2Ftracker.openbittorrent.com%3A80","udp%3A%2F%2Fopen.demonii.com%3A1337","udp%3A%2F%2Ftracker.coppersurfer.tk%3A6969","udp%3A%2F%2Fexodus.desync.com%3A6969"],"infoHash":"5a2f42131fc77478722efa707e387f51be81babc","infoHashBuffer":{"type":"Buffer","data":[90,47,66,19,31,199,116,120,114,46,250,112,126,56,127,81,190,129,186,188]},"announce":[],"urlList":[]}}